<svg viewBox="0 0 24 24" fill="none" xmlns="http://www.w3.org/2000/svg" class="m-icon"><path d="M11 17.443C11 19.96 8.985 22 6.5 22S2 19.96 2 17.443s2.015-4.557 4.5-4.557 4.5 2.04 4.5 4.557M22 15.418c0 2.517-2.015 4.557-4.5 4.557s-4.5-2.04-4.5-4.557 2.015-4.557 4.5-4.557S22 12.9 22 15.418" fill="currentColor"></path><path fill-rule="evenodd" clip-rule="evenodd" d="M12.483 3.222a.74.74 0 0 1 .623-.202c.919.133 1.684.65 2.297 1.3s1.113 1.473 1.51 2.314c.793 1.674 1.243 3.561 1.334 4.67l-1.495.126c-.075-.916-.475-2.624-1.191-4.14-.357-.754-.775-1.425-1.243-1.92a3.6 3.6 0 0 0-.531-.469c-.04 2.003-.598 3.986-1.326 5.659-.866 1.989-2.027 3.656-2.993 4.438l-.937-1.186c.702-.568 1.74-1.99 2.558-3.865.81-1.86 1.349-4.047 1.164-6.106a.77.77 0 0 1 .23-.62" fill="currentColor"></path><path fill-rule="evenodd" clip-rule="evenodd" d="M16.212 2.52a.76.76 0 0 1-.475.96L11.237 5a.75.75 0 0 1-.948-.481.76.76 0 0 1 .474-.96l4.5-1.52a.75.75 0 0 1 .949.48" fill="currentColor"></path></svg>