
<svg width="104" height="20" viewBox="0 0 104 20" fill="none" xmlns="http://www.w3.org/2000/svg">
<path d="M12.7849 11.4498L12.7902 11.4621L12.796 11.4741C12.8833 11.6566 12.9335 11.8794 12.9335 12.1279C12.9335 12.6926 12.6954 13.2045 12.1237 13.6952C11.577 14.1645 10.8474 14.4237 9.88942 14.4237H5.67803V5.61882H9.59079C10.5303 5.61882 11.2067 5.85587 11.6961 6.25844C12.2119 6.6963 12.4176 7.13945 12.4176 7.63096C12.4176 7.83374 12.3871 8.02277 12.3239 8.19323C12.2489 8.39594 12.1763 8.52199 12.1188 8.5954C11.9819 8.74524 11.8902 8.84502 11.804 8.92126C11.7632 8.9573 11.7255 8.98607 11.6945 9.00697C11.6615 9.02912 11.6452 9.03633 11.6471 9.03551L11.5902 9.05975L11.5387 9.09391L11.4166 9.17494L10.2603 9.9418L11.5772 10.3785C11.5771 10.3785 11.58 10.3795 11.5859 10.3817C11.5916 10.3839 11.5993 10.3869 11.6087 10.3908C11.6275 10.3987 11.6516 10.4095 11.6791 10.4232L11.7219 10.4445L11.7595 10.457C11.7615 10.458 11.7813 10.4667 11.8233 10.49C11.8769 10.5198 11.9497 10.564 12.041 10.6245L12.0492 10.63L12.0576 10.6352C12.223 10.738 12.3599 10.8522 12.4945 10.9861C12.5815 11.0726 12.6874 11.2233 12.7849 11.4498ZM7.09667 12.9247V13.5999H7.77189H9.67224C10.1236 13.5999 10.5693 13.4606 10.919 13.1359L10.9275 13.128L10.9357 13.1198C11.2566 12.8006 11.4469 12.389 11.4469 11.9119C11.4469 11.4165 11.2529 11.0195 10.9357 10.7039L10.9275 10.6957L10.919 10.6878C10.5693 10.3631 10.1235 10.2238 9.67224 10.2238H7.77189H7.09667V10.899V12.9247ZM10.4742 6.88222L10.4647 6.87271L10.4547 6.86358C10.1143 6.55095 9.69755 6.45609 9.30574 6.45609H7.77189H7.09667V7.13131V8.85987V9.53509H7.77189H9.30574C9.7249 9.53509 10.1168 9.41288 10.4329 9.14683L10.4543 9.12875L10.4742 9.10895C10.765 8.81967 10.9311 8.43116 10.9311 7.99561C10.9311 7.56009 10.765 7.17153 10.4742 6.88222ZM22.695 6.90064L22.695 6.90066L22.6984 6.90387C23.5822 7.74799 24.0233 8.7731 24.0233 10.0213C24.0233 11.2671 23.5837 12.2933 22.6983 13.1521C21.8045 13.993 20.6869 14.4237 19.2961 14.4237H16.0349V5.61882H19.2961C20.7036 5.61882 21.8177 6.05114 22.695 6.90064ZM17.4536 12.6411V13.3163H18.1288H19.2961C20.197 13.3163 20.9746 12.9872 21.612 12.3698C22.2641 11.7382 22.5911 10.9398 22.5911 10.0213C22.5911 9.1083 22.2906 8.29367 21.6591 7.66546C21.0292 7.03872 20.2264 6.73967 19.2961 6.73967H18.1288H17.4536V7.41489V12.6411ZM28.5299 9.07594V14.4237H27.1112V5.61882H28.5915L31.5244 9.35763L32.0556 10.0349L32.5869 9.35763L35.5197 5.61882H37V14.4237H35.5814V9.07594V7.1502L34.3788 8.65428L32.0556 11.5598L29.7325 8.65428L28.5299 7.15021V9.07594Z" fill="#37003C" stroke="#37003C" stroke-width="1.35044"/>
<path d="M65.8139 12.2902L65.1993 12.5697C65.4168 13.0481 65.5324 13.5604 65.5324 14.1403C65.5324 15.4753 64.9545 16.6615 63.7065 17.7316C62.4776 18.7721 60.89 19.326 58.8777 19.326H49.9426V0.67644H58.3076C60.2547 0.67644 61.758 1.17166 62.8702 2.09969L62.8702 2.0997L62.8735 2.10243C64.0033 3.03305 64.5143 4.09339 64.5143 5.28144C64.5143 5.76602 64.4436 6.19615 64.287 6.60793L64.2841 6.61548L64.2814 6.6231C64.1179 7.08608 63.9488 7.4014 63.7702 7.60719C63.5233 7.89159 63.3004 8.12436 63.0862 8.31378C62.8951 8.48277 62.712 8.60381 62.5542 8.70115L62.3098 8.82275L60.9996 9.4745L62.3457 10.0484C62.379 10.0626 62.4122 10.0758 62.4399 10.0867C62.4468 10.0894 62.4533 10.0919 62.4597 10.0944C62.4814 10.103 62.501 10.1107 62.5225 10.1193C62.5751 10.1405 62.6291 10.1637 62.6898 10.1939L62.7106 10.2042L62.732 10.2131C62.8395 10.2576 63.0982 10.394 63.4993 10.6468C63.8709 10.8809 64.1924 11.1315 64.4729 11.4221L64.4728 11.4222L64.4826 11.4319C64.713 11.6612 64.9575 12.038 65.1993 12.5697L65.8139 12.2902ZM54.0488 15.7203V16.3955H54.7241H58.4433C59.2165 16.3955 59.9277 16.1635 60.4722 15.6265C61.0164 15.1172 61.2904 14.4657 61.2904 13.7082C61.2904 12.9615 61.0146 12.311 60.4722 11.8033C59.9277 11.2664 59.2165 11.0343 58.4433 11.0343H54.7241H54.0488V11.7095V15.7203ZM59.5612 4.26646L59.556 4.26151L59.5507 4.25667C59.0561 3.80397 58.4294 3.62039 57.7375 3.62039H54.7241H54.0488V4.29561V7.71221V8.38743H54.7241H57.7375C58.4436 8.38743 59.0647 8.18249 59.5507 7.73764C60.0535 7.27747 60.2723 6.66514 60.2723 5.99717C60.2723 5.32009 60.0481 4.73149 59.5612 4.26646ZM74.4233 15.4233V16.0985H75.0985H84.753V19.326H70.317V0.67644H84.4816V3.90397H75.0985H74.4233V4.57919V7.71221V8.38743H75.0985H82.174V11.3314H75.0985H74.4233V12.0066V15.4233ZM93.4334 4.86281V4.18759H92.7582H87.8274V0.67644H103.132V4.18759H98.2013H97.5261V4.86281V19.326H93.4334V4.86281Z" fill="#37003C" stroke="#37003C" stroke-width="1.35044"/>
<path fill-rule="evenodd" clip-rule="evenodd" d="M4.67697 0.824951H38.001C39.9963 0.824951 41.6252 2.44551 41.6252 4.44416V15.6123C41.6252 17.5974 39.9963 19.218 38.001 19.218H4.67697C2.68161 19.218 1.05273 17.5974 1.05273 15.6123V4.44416C1.05273 2.44551 2.68161 0.824951 4.67697 0.824951Z" stroke="#37003C" stroke-width="0.837272" stroke-miterlimit="22.9256"/>
</svg>
