<svg viewBox="0 0 24 24" fill="none" xmlns="http://www.w3.org/2000/svg" class="m-icon"><path fill-rule="evenodd" clip-rule="evenodd" d="M4.08 7.958c-1.184 2.18-2.292 4.412-3.43 6.626a1.97 1.97 0 0 0-.114 1.545c.134.346.367.643.67.857a2.4 2.4 0 0 0 1.079.444 2.68 2.68 0 0 0 2.048-.56l3.923-2.922 8.282 2.22 1.906 4.482a2.68 2.68 0 0 0 1.493 1.51c.367.147.764.2 1.157.155.37-.036.724-.176 1.018-.404a2.02 2.02 0 0 0 .669-1.42c.146-2.49.279-4.973.336-7.466a5.83 5.83 0 0 0-.815-3.458 4.37 4.37 0 0 0-2.602-1.93 4.1 4.1 0 0 0-1.824-.066 4.4 4.4 0 0 0-1.675.66l-1.398-.374.375-1.398c.076-.267.252-.494.492-.633a1 1 0 0 1 .784-.112 1.93 1.93 0 0 0 1.483-.19c.434-.25.758-.655.903-1.135a.46.46 0 1 0-.88-.236 1.07 1.07 0 0 1-1.313.758 1.97 1.97 0 0 0-2.402 1.387l-.389 1.45-1.408-.378a4.4 4.4 0 0 0-1.12-1.41 4.1 4.1 0 0 0-1.613-.853 4.4 4.4 0 0 0-3.187.255A5.9 5.9 0 0 0 4.08 7.958m3.244 1.89L6.288 9.57a.536.536 0 0 1 .278-1.035l1.035.277.278-1.035a.514.514 0 0 1 .616-.356.525.525 0 0 1 .377.622L8.595 9.08l1.035.277a.536.536 0 0 1-.277 1.035l-1.035-.277-.278 1.035a.525.525 0 0 1-.638.351.514.514 0 0 1-.356-.617zm10.218 2.904a.675.675 0 1 1 .37-1.298.675.675 0 0 1-.37 1.298m2.165-.13a.675.675 0 1 1 1.3.37.675.675 0 0 1-1.3-.37m-1.195 1.81a.686.686 0 1 1 .355-1.324.686.686 0 0 1-.355 1.324m.206-3.418a.686.686 0 1 1 1.325.355.686.686 0 0 1-1.325-.355" fill="currentColor"></path></svg>