<svg viewBox="0 0 24 24" fill="none" xmlns="http://www.w3.org/2000/svg" class="m-icon header-search-icon header__search-icon"><path d="M10.111 2a8.114 8.114 0 0 1 8.112 8.111c0 1.85-.617 3.558-1.666 4.921l5.127 5.126a1.077 1.077 0 0 1 0 1.525c-.39.39-1.006.422-1.428.087l-.097-.087-5.127-5.126a8.04 8.04 0 0 1-4.92 1.665A8.114 8.114 0 0 1 2 10.112 8.114 8.114 0 0 1 10.111 2m0 2.163a5.945 5.945 0 0 0-5.948 5.948 5.945 5.945 0 0 0 5.948 5.948 5.945 5.945 0 0 0 5.949-5.948 5.945 5.945 0 0 0-5.949-5.948" fill="currentColor"></path></svg>