<svg width="139" height="29" viewBox="0 0 139 29" fill="none" xmlns="http://www.w3.org/2000/svg">
<path fill-rule="evenodd" clip-rule="evenodd" d="M15.0017 28.0669C22.7257 28.0669 28.9873 21.8053 28.9873 14.0813C28.9873 6.35733 22.7257 0.0957914 15.0017 0.0957914C7.27774 0.0957914 1.0162 6.35733 1.0162 14.0813C1.0162 21.8053 7.27774 28.0669 15.0017 28.0669ZM15.0017 28.1627C22.7786 28.1627 29.0831 21.8582 29.0831 14.0813C29.0831 6.30443 22.7786 0 15.0017 0C7.22484 0 0.92041 6.30443 0.92041 14.0813C0.92041 21.8582 7.22484 28.1627 15.0017 28.1627Z" fill="#E01821"/>
<path fill-rule="evenodd" clip-rule="evenodd" d="M15.0017 28.4501C22.7257 28.4501 28.9873 22.1885 28.9873 14.4645C28.9873 6.74051 22.7257 0.47897 15.0017 0.47897C7.27774 0.47897 1.0162 6.74051 1.0162 14.4645C1.0162 22.1885 7.27774 28.4501 15.0017 28.4501ZM15.0017 28.5458C22.7786 28.5458 29.0831 22.2414 29.0831 14.4645C29.0831 6.68761 22.7786 0.383179 15.0017 0.383179C7.22484 0.383179 0.92041 6.68761 0.92041 14.4645C0.92041 22.2414 7.22484 28.5458 15.0017 28.5458Z" fill="#E01821"/>
<path fill-rule="evenodd" clip-rule="evenodd" d="M14.8101 27.6837C22.2166 27.6837 28.2208 21.6795 28.2208 14.2729C28.2208 6.86633 22.2166 0.862118 14.8101 0.862118C7.40347 0.862118 1.39926 6.86633 1.39926 14.2729C1.39926 21.6795 7.40347 27.6837 14.8101 27.6837ZM14.8101 27.7795C22.2695 27.7795 28.3166 21.7324 28.3166 14.2729C28.3166 6.81343 22.2695 0.766327 14.8101 0.766327C7.35057 0.766327 1.30347 6.81343 1.30347 14.2729C1.30347 21.7324 7.35057 27.7795 14.8101 27.7795Z" fill="#E01821"/>
<path fill-rule="evenodd" clip-rule="evenodd" d="M15.385 27.5879C22.7387 27.5879 28.7 21.6266 28.7 14.2729C28.7 6.91924 22.7387 0.95791 15.385 0.95791C8.03133 0.95791 2.07 6.91924 2.07 14.2729C2.07 21.6266 8.03133 27.5879 15.385 27.5879ZM15.385 27.7795C22.8445 27.7795 28.8916 21.7324 28.8916 14.2729C28.8916 6.81343 22.8445 0.766327 15.385 0.766327C7.92552 0.766327 1.87842 6.81343 1.87842 14.2729C1.87842 21.7324 7.92552 27.7795 15.385 27.7795Z" fill="#E01821"/>
<path d="M28.3167 14.2729C28.3167 21.5208 22.4411 27.3963 15.1932 27.3963C7.94538 27.3963 2.06982 21.5208 2.06982 14.2729C2.06982 7.02506 7.94538 1.14951 15.1932 1.14951C22.4411 1.14951 28.3167 7.02506 28.3167 14.2729Z" fill="#E01821"/>
<path d="M51.4358 16.8519H49.825V4.72729H51.4358V16.8519Z" fill="url(#paint0_linear_86_112)"/>
<path fill-rule="evenodd" clip-rule="evenodd" d="M52.0002 17.4161H49.2607V4.16299H52.0002V17.4161ZM51.4359 16.8519V4.72728H49.825V16.8519H51.4359Z" fill="white"/>
<path d="M47.5712 4.72729V16.8519H45.9604V11.3092H40.6948V16.8519H39.084V4.72729H40.6948V9.99283H45.9604V4.72729H47.5712Z" fill="url(#paint1_linear_86_112)"/>
<path fill-rule="evenodd" clip-rule="evenodd" d="M48.1353 4.16299V17.4161H45.3959V11.8735H41.2589V17.4161H38.5195V4.16299H41.2589V9.42853H45.3959V4.16299H48.1353ZM45.9602 9.99281H40.6947V4.72728H39.0838V16.8519H40.6947V11.3092H45.9602V16.8519H47.571V4.72728H45.9602V9.99281Z" fill="white"/>
<path d="M29.6881 16.8519V15.5355H34.382C35.2827 15.5355 35.6638 14.9812 35.6638 13.9247C35.6638 13.2838 35.3867 12.8161 34.2954 12.1752L31.5761 10.5817C30.277 9.81962 29.5149 9.07482 29.5149 7.48131C29.5149 5.74922 30.3463 4.72729 32.2689 4.72729H36.8243V6.04368H32.5634C31.6454 6.04368 31.195 6.39009 31.195 7.51595C31.195 8.17414 31.3855 8.6418 32.3555 9.24803L34.8324 10.7723C36.2873 11.6729 37.3439 12.2792 37.3439 13.9247C37.3439 15.5701 36.703 16.8519 34.8324 16.8519H29.6881Z" fill="url(#paint2_linear_86_112)"/>
<path fill-rule="evenodd" clip-rule="evenodd" d="M29.1236 17.4161V14.9712H34.3819C34.7092 14.9712 34.8402 14.8773 34.913 14.7826C35.0095 14.6569 35.0993 14.4036 35.0993 13.9246C35.0993 13.7015 35.056 13.5486 34.9355 13.3862C34.7969 13.1995 34.5316 12.9685 34.0098 12.662C34.0097 12.6619 34.0096 12.6619 34.0095 12.6618L31.2904 11.0684C30.6224 10.6765 30.0258 10.2527 29.6033 9.67725C29.168 9.08429 28.9504 8.37746 28.9504 7.48129C28.9504 6.5339 29.1774 5.68136 29.7616 5.0662C30.3508 4.4456 31.2113 4.16299 32.2687 4.16299H37.3884V6.60795H32.5632C32.1542 6.60795 32.0012 6.68923 31.9338 6.75662C31.8648 6.82565 31.7591 7.007 31.7591 7.51594C31.7591 7.78588 31.7975 7.95189 31.8922 8.10614C31.9958 8.27488 32.203 8.48715 32.6528 8.76848L35.1292 10.2925C35.1764 10.3216 35.2235 10.3507 35.2706 10.3798C35.9245 10.7835 36.5689 11.1814 37.0428 11.6806C37.5866 12.2534 37.908 12.9547 37.908 13.9246C37.908 14.8055 37.739 15.6788 37.2411 16.3436C36.7212 17.0378 35.9104 17.4161 34.8322 17.4161H29.1236ZM32.3553 9.24802C31.3854 8.64179 31.1948 8.17413 31.1948 7.51594C31.1948 6.39008 31.6452 6.04367 32.5632 6.04367H36.8241V4.72728H32.2687C30.3461 4.72728 29.5147 5.74921 29.5147 7.48129C29.5147 9.07481 30.2768 9.8196 31.5759 10.5817L34.2953 12.1752C35.3865 12.8161 35.6636 13.2838 35.6636 13.9246C35.6636 14.9812 35.2826 15.5355 34.3819 15.5355H29.6879V16.8519H34.8322C36.7029 16.8519 37.3437 15.5701 37.3437 13.9246C37.3437 12.3247 36.3449 11.7073 34.9522 10.8464C34.9125 10.8219 34.8725 10.7972 34.8322 10.7723L32.3553 9.24802Z" fill="white"/>
<path d="M23.6196 15.6741C25.8194 15.6741 26.1658 14.7734 26.1658 12.6083V4.72729H27.7766V12.7642C27.7766 15.9685 26.6508 16.9904 23.6196 16.9904C20.5885 16.9904 19.4626 15.9685 19.4626 12.7642V4.72729H21.0735V12.6083C21.0735 14.7734 21.4199 15.6741 23.6196 15.6741Z" fill="url(#paint3_linear_86_112)"/>
<path fill-rule="evenodd" clip-rule="evenodd" d="M25.6014 4.16299H28.3408V12.7641C28.3408 14.4034 28.0592 15.6579 27.2324 16.4792C26.4059 17.3003 25.1689 17.5547 23.6195 17.5547C22.07 17.5547 20.8331 17.3003 20.0066 16.4792C19.1798 15.6579 18.8982 14.4034 18.8982 12.7641V4.16299H21.6376V12.6083C21.6376 13.7109 21.7386 14.2931 21.9774 14.6206C22.1739 14.89 22.5688 15.1098 23.6195 15.1098C24.6702 15.1098 25.065 14.89 25.2615 14.6206C25.5004 14.2931 25.6014 13.7109 25.6014 12.6083V4.16299ZM26.1656 12.6083C26.1656 14.7734 25.8192 15.674 23.6195 15.674C21.4197 15.674 21.0733 14.7734 21.0733 12.6083V4.72728H19.4625V12.7641C19.4625 15.9685 20.5883 16.9904 23.6195 16.9904C26.6506 16.9904 27.7765 15.9685 27.7765 12.7641V4.72728H26.1656V12.6083Z" fill="white"/>
<path d="M10.0668 16.8519V15.5355H14.7607C15.6614 15.5355 16.0424 14.9812 16.0424 13.9247C16.0424 13.2838 15.7653 12.8161 14.6741 12.1752L11.9547 10.5817C10.6557 9.81962 9.89355 9.07482 9.89355 7.48131C9.89355 5.74922 10.725 4.72729 12.6476 4.72729H17.2029V6.04368H12.942C12.024 6.04368 11.5737 6.39009 11.5737 7.51595C11.5737 8.17414 11.7642 8.6418 12.7342 9.24803L15.211 10.7723C16.666 11.6729 17.7226 12.2792 17.7226 13.9247C17.7226 15.5701 17.0817 16.8519 15.211 16.8519H10.0668Z" fill="url(#paint4_linear_86_112)"/>
<path fill-rule="evenodd" clip-rule="evenodd" d="M9.50255 17.4161V14.9712H14.7608C15.0881 14.9712 15.2191 14.8773 15.2919 14.7826C15.3884 14.6569 15.4782 14.4036 15.4782 13.9246C15.4782 13.7015 15.4349 13.5486 15.3144 13.3862C15.1758 13.1995 14.9106 12.9685 14.3889 12.6621C14.3889 12.6621 14.3889 12.6621 14.3889 12.6621C14.3888 12.662 14.3885 12.6619 14.3884 12.6618L11.6693 11.0684C11.0013 10.6765 10.4047 10.2527 9.98223 9.67725C9.54686 9.08429 9.32935 8.37746 9.32935 7.48129C9.32935 6.5339 9.55634 5.68136 10.1405 5.0662C10.7297 4.4456 11.5902 4.16299 12.6476 4.16299H17.7673V6.60795H12.9421C12.5332 6.60795 12.3801 6.68923 12.3127 6.75662C12.2437 6.82565 12.138 7.007 12.138 7.51594C12.138 7.78588 12.1764 7.95189 12.2711 8.10614C12.3747 8.27488 12.5819 8.48715 13.0317 8.76849L15.5081 10.2925C15.5553 10.3216 15.6024 10.3507 15.6495 10.3798C16.3034 10.7836 16.9478 11.1814 17.4217 11.6806C17.9655 12.2534 18.2869 12.9547 18.2869 13.9246C18.2869 14.8055 18.1179 15.6788 17.62 16.3436C17.1001 17.0378 16.2893 17.4161 15.2111 17.4161H9.50255ZM12.7342 9.24802C11.7643 8.64179 11.5738 8.17413 11.5738 7.51594C11.5738 6.39008 12.0241 6.04367 12.9421 6.04367H17.203V4.72728H12.6476C10.725 4.72728 9.89363 5.74921 9.89363 7.48129C9.89363 9.07481 10.6557 9.8196 11.9548 10.5817L14.6742 12.1752C15.7654 12.8161 16.0425 13.2838 16.0425 13.9246C16.0425 14.9812 15.6615 15.5355 14.7608 15.5355H10.0668V16.8519H15.2111C17.0818 16.8519 17.7226 15.5701 17.7226 13.9246C17.7226 12.3247 16.7238 11.7073 15.3311 10.8464C15.2914 10.8219 15.2514 10.7972 15.2111 10.7723L12.7342 9.24802Z" fill="white"/>
<g filter="url(#filter0_d_86_112)">
<path d="M41.2464 22.1369C41.2464 22.7987 41.1224 23.3654 40.8745 23.8372C40.6286 24.307 40.2928 24.6669 39.8669 24.9167C39.4431 25.1666 38.9623 25.2916 38.4246 25.2916C37.8868 25.2916 37.405 25.1666 36.9792 24.9167C36.5554 24.6649 36.2195 24.304 35.9716 23.8342C35.7257 23.3624 35.6028 22.7967 35.6028 22.1369C35.6028 21.4752 35.7257 20.9095 35.9716 20.4397C36.2195 19.9679 36.5554 19.607 36.9792 19.3571C37.405 19.1072 37.8868 18.9823 38.4246 18.9823C38.9623 18.9823 39.4431 19.1072 39.8669 19.3571C40.2928 19.607 40.6286 19.9679 40.8745 20.4397C41.1224 20.9095 41.2464 21.4752 41.2464 22.1369ZM40.1278 22.1369C40.1278 21.6711 40.0549 21.2783 39.9089 20.9584C39.765 20.6366 39.5651 20.3937 39.3092 20.2298C39.0533 20.0638 38.7584 19.9809 38.4246 19.9809C38.0907 19.9809 37.7958 20.0638 37.5399 20.2298C37.2841 20.3937 37.0831 20.6366 36.9372 20.9584C36.7933 21.2783 36.7213 21.6711 36.7213 22.1369C36.7213 22.6027 36.7933 22.9966 36.9372 23.3184C37.0831 23.6383 37.2841 23.8812 37.5399 24.0471C37.7958 24.211 38.0907 24.293 38.4246 24.293C38.7584 24.293 39.0533 24.211 39.3092 24.0471C39.5651 23.8812 39.765 23.6383 39.9089 23.3184C40.0549 22.9966 40.1278 22.6027 40.1278 22.1369Z" fill="#A4A4A4"/>
<path d="M34.5463 19.0662V25.2075H33.5568L30.663 21.0243H30.612V25.2075H29.4995V19.0662H30.4951L33.3858 23.2524H33.4398V19.0662H34.5463Z" fill="url(#paint5_linear_86_112)"/>
<path d="M28.2951 19.0662V25.2075H27.1826V19.0662H28.2951Z" fill="#C0C0C0"/>
<path d="M25.0365 20.7545C25.0085 20.4927 24.8906 20.2887 24.6827 20.1428C24.4768 19.9969 24.2089 19.9239 23.879 19.9239C23.6471 19.9239 23.4482 19.9589 23.2823 20.0288C23.1163 20.0988 22.9894 20.1938 22.9014 20.3137C22.8135 20.4337 22.7685 20.5706 22.7665 20.7246C22.7665 20.8525 22.7955 20.9634 22.8535 21.0574C22.9134 21.1514 22.9944 21.2313 23.0964 21.2973C23.1983 21.3613 23.3113 21.4153 23.4352 21.4592C23.5592 21.5032 23.6841 21.5402 23.81 21.5702L24.3858 21.7141C24.6177 21.7681 24.8406 21.8411 25.0545 21.933C25.2704 22.025 25.4633 22.1409 25.6333 22.2809C25.8052 22.4208 25.9411 22.5897 26.0411 22.7877C26.141 22.9856 26.191 23.2175 26.191 23.4834C26.191 23.8432 26.0991 24.1601 25.9151 24.434C25.7312 24.7058 25.4653 24.9187 25.1175 25.0727C24.7716 25.2246 24.3528 25.3006 23.861 25.3006C23.3832 25.3006 22.9684 25.2266 22.6166 25.0787C22.2667 24.9307 21.9928 24.7148 21.7949 24.431C21.599 24.1471 21.493 23.8012 21.4771 23.3934H22.5716C22.5876 23.6073 22.6535 23.7852 22.7695 23.9272C22.8854 24.0691 23.0364 24.1751 23.2223 24.245C23.4102 24.315 23.6201 24.35 23.852 24.35C24.0939 24.35 24.3058 24.314 24.4878 24.242C24.6717 24.1681 24.8156 24.0661 24.9196 23.9362C25.0235 23.8042 25.0765 23.6503 25.0785 23.4744C25.0765 23.3144 25.0295 23.1825 24.9376 23.0785C24.8456 22.9726 24.7167 22.8846 24.5507 22.8147C24.3868 22.7427 24.1949 22.6787 23.975 22.6227L23.2763 22.4428C22.7705 22.3129 22.3707 22.116 22.0768 21.8521C21.7849 21.5862 21.639 21.2333 21.639 20.7935C21.639 20.4317 21.7369 20.1148 21.9329 19.8429C22.1308 19.571 22.3997 19.3601 22.7395 19.2102C23.0794 19.0583 23.4642 18.9823 23.894 18.9823C24.3298 18.9823 24.7117 19.0583 25.0395 19.2102C25.3694 19.3601 25.6283 19.569 25.8162 19.8369C26.0041 20.1028 26.1011 20.4087 26.1071 20.7545H25.0365Z" fill="url(#paint6_linear_86_112)"/>
<path d="M16.4753 25.2075H15.2878L17.4499 19.0662H18.8233L20.9884 25.2075H19.8009L18.1606 20.3256H18.1126L16.4753 25.2075ZM16.5143 22.7996H19.7529V23.6932H16.5143V22.7996Z" fill="#FBFBFB"/>
<path d="M14.742 21.1384H13.6205C13.5885 20.9545 13.5295 20.7915 13.4436 20.6496C13.3576 20.5056 13.2507 20.3837 13.1227 20.2837C12.9948 20.1838 12.8488 20.1088 12.6849 20.0588C12.523 20.0069 12.348 19.9809 12.1601 19.9809C11.8263 19.9809 11.5304 20.0648 11.2725 20.2328C11.0146 20.3987 10.8127 20.6426 10.6668 20.9644C10.5208 21.2843 10.4479 21.6751 10.4479 22.1369C10.4479 22.6067 10.5208 23.0026 10.6668 23.3244C10.8147 23.6443 11.0166 23.8862 11.2725 24.0501C11.5304 24.212 11.8253 24.293 12.1571 24.293C12.341 24.293 12.513 24.269 12.6729 24.221C12.8348 24.1711 12.9798 24.0981 13.1077 24.0021C13.2377 23.9062 13.3466 23.7882 13.4346 23.6483C13.5245 23.5084 13.5865 23.3484 13.6205 23.1685L14.742 23.1745C14.7 23.4664 14.6091 23.7403 14.4691 23.9961C14.3312 24.252 14.1503 24.4779 13.9264 24.6738C13.7025 24.8678 13.4406 25.0197 13.1407 25.1297C12.8408 25.2376 12.508 25.2916 12.1421 25.2916C11.6024 25.2916 11.1206 25.1666 10.6968 24.9167C10.2729 24.6669 9.93908 24.306 9.69519 23.8342C9.45129 23.3624 9.32935 22.7967 9.32935 22.1369C9.32935 21.4752 9.45229 20.9095 9.69819 20.4397C9.94408 19.9679 10.2789 19.607 10.7028 19.3571C11.1266 19.1072 11.6064 18.9823 12.1421 18.9823C12.484 18.9823 12.8019 19.0303 13.0957 19.1262C13.3896 19.2222 13.6515 19.3631 13.8814 19.5491C14.1113 19.733 14.3002 19.9589 14.4481 20.2268C14.5981 20.4926 14.696 20.7965 14.742 21.1384Z" fill="#FBFBFB"/>
</g>
<defs>
<filter id="filter0_d_86_112" x="9.12935" y="18.9823" width="32.317" height="7.01827" filterUnits="userSpaceOnUse" color-interpolation-filters="sRGB">
<feFlood flood-opacity="0" result="BackgroundImageFix"/>
<feColorMatrix in="SourceAlpha" type="matrix" values="0 0 0 0 0 0 0 0 0 0 0 0 0 0 0 0 0 0 127 0" result="hardAlpha"/>
<feOffset dy="0.5"/>
<feGaussianBlur stdDeviation="0.1"/>
<feComposite in2="hardAlpha" operator="out"/>
<feColorMatrix type="matrix" values="0 0 0 0 0 0 0 0 0 0 0 0 0 0 0 0 0 0 0.58 0"/>
<feBlend mode="normal" in2="BackgroundImageFix" result="effect1_dropShadow_86_112"/>
<feBlend mode="normal" in="SourceGraphic" in2="effect1_dropShadow_86_112" result="shape"/>
</filter>
<linearGradient id="paint0_linear_86_112" x1="50.6737" y1="20.4072" x2="50.6737" y2="4.45926" gradientUnits="userSpaceOnUse">
<stop/>
<stop offset="1" stop-color="#666666"/>
</linearGradient>
<linearGradient id="paint1_linear_86_112" x1="43.5557" y1="20.4072" x2="43.5557" y2="4.45926" gradientUnits="userSpaceOnUse">
<stop/>
<stop offset="1" stop-color="#666666"/>
</linearGradient>
<linearGradient id="paint2_linear_86_112" x1="33.6398" y1="20.4072" x2="33.6398" y2="4.45926" gradientUnits="userSpaceOnUse">
<stop/>
<stop offset="1" stop-color="#666666"/>
</linearGradient>
<linearGradient id="paint3_linear_86_112" x1="23.8431" y1="20.5864" x2="23.8431" y2="4.4562" gradientUnits="userSpaceOnUse">
<stop/>
<stop offset="1" stop-color="#666666"/>
</linearGradient>
<linearGradient id="paint4_linear_86_112" x1="14.0185" y1="20.4072" x2="14.0185" y2="4.45926" gradientUnits="userSpaceOnUse">
<stop/>
<stop offset="1" stop-color="#666666"/>
</linearGradient>
<linearGradient id="paint5_linear_86_112" x1="32.5" y1="20" x2="38" y2="27" gradientUnits="userSpaceOnUse">
<stop stop-color="#C0C0C0"/>
<stop offset="1" stop-color="#5A5A5A"/>
</linearGradient>
<linearGradient id="paint6_linear_86_112" x1="23.834" y1="18.9823" x2="32.2258" y2="26.5391" gradientUnits="userSpaceOnUse">
<stop stop-color="#FBFBFB"/>
<stop offset="1" stop-color="#959595"/>
</linearGradient>
</defs>
</svg>
