
<svg width="139" height="29" viewBox="0 0 139 29" fill="none" xmlns="http://www.w3.org/2000/svg"><path fill-rule="evenodd" clip-rule="evenodd" d="M0.603516 28.5868L0.808089 26.5852L3.95034 0.414062H4.63362H30.2524H31.1218L30.7372 3.61584H74.2071L73.8716 0.414062H111.313L110.415 3.61584H137.455H138.343L134.824 28.5868H0.603516Z" fill="#1DD063"/><path d="M37.2944 7.31348H42.8036L48.7853 17.0195L49.9657 7.31348H55.5404L53.3985 24.8883H47.8238L41.8748 15.2378L40.6985 24.8883H35.1484L37.2944 7.31348Z" fill="#060E2A"/><path d="M28.7395 7.31348H34.6599L32.518 24.8883H26.5977L28.7395 7.31348Z" fill="#060E2A"/><path d="M7.21455 4.1123H13.1779L19.5585 15.5836L20.9333 4.1123H26.9682L24.4744 24.8868H18.4395L12.0977 13.4792L10.7271 24.8868H4.71875L7.21455 4.1123Z" fill="#060E2A"/><path d="M57.8198 7.31348H73.6129L73.1547 11.0681H63.284L62.9403 13.867H72.095L71.6572 17.4511H62.5066L62.0831 20.9118H72.2504L71.7615 24.8883H55.6738L57.8198 7.31348Z" fill="#060E2A"/><path d="M115.548 7.31745H121.059L127.039 17.0194L128.222 7.31745H133.798L131.654 24.8882H126.08L120.133 15.2397L118.954 24.8882H113.404L115.548 7.31745ZM77.8125 4.18555H83.8577L84.6453 15.737L89.2154 4.18555H95.4222L93.8409 13.8217L96.6926 13.0326L94.653 23.0386L102.147 9.5554L98.6299 10.4432L101.023 4.18555H106.627L99.5996 24.8882H93.3519L91.3001 11.853L86.1427 24.8882H79.9053L77.8125 4.18555ZM107.339 7.31745H113.263L111.119 24.8882H105.195L107.339 7.31745Z" fill="#060E2A"/></svg>